<svg xmlns="http://www.w3.org/2000/svg" xmlns:xlink="http://www.w3.org/1999/xlink" width="355pt" height="314pt" viewBox="0.00 0.00 355.00 314.00">
<g id="graph0" class="graph" transform="scale(1 1) rotate(0) translate(4 310)">
<title>Tree</title>
<polygon fill="white" stroke="transparent" points="-4,4 -4,-310 351,-310 351,4 -4,4"/>
<!-- 0 -->
<g id="node1" class="node">
<title>0</title>
<polygon fill="#ffffff" stroke="black" points="207,-306 58,-306 58,-223 207,-223 207,-306"/>
<text text-anchor="middle" x="132.5" y="-290.8" font-family="Times,serif" font-size="14.00">petal width (cm) &lt;= 0.8</text>
<text text-anchor="middle" x="132.5" y="-275.8" font-family="Times,serif" font-size="14.00">entropy = 1.58</text>
<text text-anchor="middle" x="132.5" y="-260.8" font-family="Times,serif" font-size="14.00">samples = 105</text>
<text text-anchor="middle" x="132.5" y="-245.8" font-family="Times,serif" font-size="14.00">value = [31, 37, 37]</text>
<text text-anchor="middle" x="132.5" y="-230.8" font-family="Times,serif" font-size="14.00">class = 1 - versicolor</text>
</g>
<!-- 1 -->
<g id="node2" class="node">
<title>1</title>
<polygon fill="#e58139" stroke="black" points="113,-179.5 0,-179.5 0,-111.5 113,-111.5 113,-179.5"/>
<text text-anchor="middle" x="56.5" y="-164.3" font-family="Times,serif" font-size="14.00">entropy = 0.0</text>
<text text-anchor="middle" x="56.5" y="-149.3" font-family="Times,serif" font-size="14.00">samples = 31</text>
<text text-anchor="middle" x="56.5" y="-134.3" font-family="Times,serif" font-size="14.00">value = [31, 0, 0]</text>
<text text-anchor="middle" x="56.5" y="-119.3" font-family="Times,serif" font-size="14.00">class = 0 - setosa</text>
</g>
<!-- 0&#45;&gt;1 -->
<g id="edge1" class="edge">
<title>0-&gt;1</title>
<path fill="none" stroke="black" d="M106.13,-222.91C98.82,-211.65 90.87,-199.42 83.53,-188.11"/>
<polygon fill="black" stroke="black" points="86.43,-186.15 78.04,-179.67 80.56,-189.96 86.43,-186.15"/>
<text text-anchor="middle" x="72.85" y="-200.42" font-family="Times,serif" font-size="14.00">True</text>
</g>
<!-- 2 -->
<g id="node3" class="node">
<title>2</title>
<polygon fill="#ffffff" stroke="black" points="287.5,-187 131.5,-187 131.5,-104 287.5,-104 287.5,-187"/>
<text text-anchor="middle" x="209.5" y="-171.8" font-family="Times,serif" font-size="14.00">petal width (cm) &lt;= 1.75</text>
<text text-anchor="middle" x="209.5" y="-156.8" font-family="Times,serif" font-size="14.00">entropy = 1.0</text>
<text text-anchor="middle" x="209.5" y="-141.8" font-family="Times,serif" font-size="14.00">samples = 74</text>
<text text-anchor="middle" x="209.5" y="-126.8" font-family="Times,serif" font-size="14.00">value = [0, 37, 37]</text>
<text text-anchor="middle" x="209.5" y="-111.8" font-family="Times,serif" font-size="14.00">class = 1 - versicolor</text>
</g>
<!-- 0&#45;&gt;2 -->
<g id="edge2" class="edge">
<title>0-&gt;2</title>
<path fill="none" stroke="black" d="M159.21,-222.91C165.01,-214.1 171.2,-204.7 177.18,-195.61"/>
<polygon fill="black" stroke="black" points="180.26,-197.3 182.83,-187.02 174.41,-193.45 180.26,-197.3"/>
<text text-anchor="middle" x="187.88" y="-207.81" font-family="Times,serif" font-size="14.00">False</text>
</g>
<!-- 3 -->
<g id="node4" class="node">
<title>3</title>
<polygon fill="#54e992" stroke="black" points="202,-68 69,-68 69,0 202,0 202,-68"/>
<text text-anchor="middle" x="135.5" y="-52.8" font-family="Times,serif" font-size="14.00">entropy = 0.535</text>
<text text-anchor="middle" x="135.5" y="-37.8" font-family="Times,serif" font-size="14.00">samples = 41</text>
<text text-anchor="middle" x="135.5" y="-22.8" font-family="Times,serif" font-size="14.00">value = [0, 36, 5]</text>
<text text-anchor="middle" x="135.5" y="-7.8" font-family="Times,serif" font-size="14.00">class = 1 - versicolor</text>
</g>
<!-- 2&#45;&gt;3 -->
<g id="edge3" class="edge">
<title>2-&gt;3</title>
<path fill="none" stroke="black" d="M181.95,-103.73C175.97,-94.88 169.63,-85.51 163.63,-76.63"/>
<polygon fill="black" stroke="black" points="166.5,-74.63 158,-68.3 160.7,-78.54 166.5,-74.63"/>
</g>
<!-- 4 -->
<g id="node5" class="node">
<title>4</title>
<polygon fill="#853fe6" stroke="black" points="347,-68 220,-68 220,0 347,0 347,-68"/>
<text text-anchor="middle" x="283.5" y="-52.8" font-family="Times,serif" font-size="14.00">entropy = 0.196</text>
<text text-anchor="middle" x="283.5" y="-37.8" font-family="Times,serif" font-size="14.00">samples = 33</text>
<text text-anchor="middle" x="283.5" y="-22.8" font-family="Times,serif" font-size="14.00">value = [0, 1, 32]</text>
<text text-anchor="middle" x="283.5" y="-7.8" font-family="Times,serif" font-size="14.00">class = 2 - virginica</text>
</g>
<!-- 2&#45;&gt;4 -->
<g id="edge4" class="edge">
<title>2-&gt;4</title>
<path fill="none" stroke="black" d="M237.05,-103.73C243.03,-94.88 249.37,-85.51 255.37,-76.63"/>
<polygon fill="black" stroke="black" points="258.3,-78.54 261,-68.3 252.5,-74.63 258.3,-78.54"/>
</g>
</g>
</svg>