<svg xmlns="http://www.w3.org/2000/svg" xmlns:xlink="http://www.w3.org/1999/xlink" width="589pt" height="433pt" viewBox="0.00 0.00 589.00 433.00">
<g id="graph0" class="graph" transform="scale(1 1) rotate(0) translate(4 429)">
<title>Tree</title>
<polygon fill="white" stroke="transparent" points="-4,4 -4,-429 585,-429 585,4 -4,4"/>
<!-- 0 -->
<g id="node1" class="node">
<title>0</title>
<polygon fill="#ffffff" stroke="black" points="291,-425 142,-425 142,-342 291,-342 291,-425"/>
<text text-anchor="middle" x="216.5" y="-409.8" font-family="Times,serif" font-size="14.00">petal width (cm) &lt;= 0.8</text>
<text text-anchor="middle" x="216.5" y="-394.8" font-family="Times,serif" font-size="14.00">entropy = 1.58</text>
<text text-anchor="middle" x="216.5" y="-379.8" font-family="Times,serif" font-size="14.00">samples = 105</text>
<text text-anchor="middle" x="216.5" y="-364.8" font-family="Times,serif" font-size="14.00">value = [31, 37, 37]</text>
<text text-anchor="middle" x="216.5" y="-349.8" font-family="Times,serif" font-size="14.00">class = 1 - versicolor</text>
</g>
<!-- 1 -->
<g id="node2" class="node">
<title>1</title>
<polygon fill="#e58139" stroke="black" points="196,-298.5 83,-298.5 83,-230.5 196,-230.5 196,-298.5"/>
<text text-anchor="middle" x="139.5" y="-283.3" font-family="Times,serif" font-size="14.00">entropy = 0.0</text>
<text text-anchor="middle" x="139.5" y="-268.3" font-family="Times,serif" font-size="14.00">samples = 31</text>
<text text-anchor="middle" x="139.5" y="-253.3" font-family="Times,serif" font-size="14.00">value = [31, 0, 0]</text>
<text text-anchor="middle" x="139.5" y="-238.3" font-family="Times,serif" font-size="14.00">class = 0 - setosa</text>
</g>
<!-- 0&#45;&gt;1 -->
<g id="edge1" class="edge">
<title>0-&gt;1</title>
<path fill="none" stroke="black" d="M189.79,-341.91C182.38,-330.65 174.33,-318.42 166.88,-307.11"/>
<polygon fill="black" stroke="black" points="169.75,-305.1 161.33,-298.67 163.9,-308.94 169.75,-305.1"/>
<text text-anchor="middle" x="156.28" y="-319.45" font-family="Times,serif" font-size="14.00">True</text>
</g>
<!-- 2 -->
<g id="node3" class="node">
<title>2</title>
<polygon fill="#ffffff" stroke="black" points="373,-306 214,-306 214,-223 373,-223 373,-306"/>
<text text-anchor="middle" x="293.5" y="-290.8" font-family="Times,serif" font-size="14.00">petal length (cm) &lt;= 4.75</text>
<text text-anchor="middle" x="293.5" y="-275.8" font-family="Times,serif" font-size="14.00">entropy = 1.0</text>
<text text-anchor="middle" x="293.5" y="-260.8" font-family="Times,serif" font-size="14.00">samples = 74</text>
<text text-anchor="middle" x="293.5" y="-245.8" font-family="Times,serif" font-size="14.00">value = [0, 37, 37]</text>
<text text-anchor="middle" x="293.5" y="-230.8" font-family="Times,serif" font-size="14.00">class = 1 - versicolor</text>
</g>
<!-- 0&#45;&gt;2 -->
<g id="edge2" class="edge">
<title>0-&gt;2</title>
<path fill="none" stroke="black" d="M243.21,-341.91C249.01,-333.1 255.2,-323.7 261.18,-314.61"/>
<polygon fill="black" stroke="black" points="264.26,-316.3 266.83,-306.02 258.41,-312.45 264.26,-316.3"/>
<text text-anchor="middle" x="271.88" y="-326.81" font-family="Times,serif" font-size="14.00">False</text>
</g>
<!-- 3 -->
<g id="node4" class="node">
<title>3</title>
<polygon fill="#3fe685" stroke="black" points="282,-187 133,-187 133,-104 282,-104 282,-187"/>
<text text-anchor="middle" x="207.5" y="-171.8" font-family="Times,serif" font-size="14.00">petal width (cm) &lt;= 1.6</text>
<text text-anchor="middle" x="207.5" y="-156.8" font-family="Times,serif" font-size="14.00">entropy = 0.196</text>
<text text-anchor="middle" x="207.5" y="-141.8" font-family="Times,serif" font-size="14.00">samples = 33</text>
<text text-anchor="middle" x="207.5" y="-126.8" font-family="Times,serif" font-size="14.00">value = [0, 32, 1]</text>
<text text-anchor="middle" x="207.5" y="-111.8" font-family="Times,serif" font-size="14.00">class = 1 - versicolor</text>
</g>
<!-- 2&#45;&gt;3 -->
<g id="edge3" class="edge">
<title>2-&gt;3</title>
<path fill="none" stroke="black" d="M263.66,-222.91C257.13,-214.01 250.14,-204.51 243.39,-195.33"/>
<polygon fill="black" stroke="black" points="246.03,-193.01 237.28,-187.02 240.39,-197.15 246.03,-193.01"/>
</g>
<!-- 6 -->
<g id="node7" class="node">
<title>6</title>
<polygon fill="#9254e9" stroke="black" points="459,-187 300,-187 300,-104 459,-104 459,-187"/>
<text text-anchor="middle" x="379.5" y="-171.8" font-family="Times,serif" font-size="14.00">petal length (cm) &lt;= 5.15</text>
<text text-anchor="middle" x="379.5" y="-156.8" font-family="Times,serif" font-size="14.00">entropy = 0.535</text>
<text text-anchor="middle" x="379.5" y="-141.8" font-family="Times,serif" font-size="14.00">samples = 41</text>
<text text-anchor="middle" x="379.5" y="-126.8" font-family="Times,serif" font-size="14.00">value = [0, 5, 36]</text>
<text text-anchor="middle" x="379.5" y="-111.8" font-family="Times,serif" font-size="14.00">class = 2 - virginica</text>
</g>
<!-- 2&#45;&gt;6 -->
<g id="edge6" class="edge">
<title>2-&gt;6</title>
<path fill="none" stroke="black" d="M323.34,-222.91C329.87,-214.01 336.86,-204.51 343.61,-195.33"/>
<polygon fill="black" stroke="black" points="346.61,-197.15 349.72,-187.02 340.97,-193.01 346.61,-197.15"/>
</g>
<!-- 4 -->
<g id="node5" class="node">
<title>4</title>
<polygon fill="#39e581" stroke="black" points="133,-68 0,-68 0,0 133,0 133,-68"/>
<text text-anchor="middle" x="66.5" y="-52.8" font-family="Times,serif" font-size="14.00">entropy = 0.0</text>
<text text-anchor="middle" x="66.5" y="-37.8" font-family="Times,serif" font-size="14.00">samples = 32</text>
<text text-anchor="middle" x="66.5" y="-22.8" font-family="Times,serif" font-size="14.00">value = [0, 32, 0]</text>
<text text-anchor="middle" x="66.5" y="-7.8" font-family="Times,serif" font-size="14.00">class = 1 - versicolor</text>
</g>
<!-- 3&#45;&gt;4 -->
<g id="edge4" class="edge">
<title>3-&gt;4</title>
<path fill="none" stroke="black" d="M155,-103.73C142.66,-94.15 129.55,-83.96 117.29,-74.44"/>
<polygon fill="black" stroke="black" points="119.42,-71.67 109.38,-68.3 115.13,-77.2 119.42,-71.67"/>
</g>
<!-- 5 -->
<g id="node6" class="node">
<title>5</title>
<polygon fill="#8139e5" stroke="black" points="278,-68 151,-68 151,0 278,0 278,-68"/>
<text text-anchor="middle" x="214.5" y="-52.8" font-family="Times,serif" font-size="14.00">entropy = 0.0</text>
<text text-anchor="middle" x="214.5" y="-37.8" font-family="Times,serif" font-size="14.00">samples = 1</text>
<text text-anchor="middle" x="214.5" y="-22.8" font-family="Times,serif" font-size="14.00">value = [0, 0, 1]</text>
<text text-anchor="middle" x="214.5" y="-7.8" font-family="Times,serif" font-size="14.00">class = 2 - virginica</text>
</g>
<!-- 3&#45;&gt;5 -->
<g id="edge5" class="edge">
<title>3-&gt;5</title>
<path fill="none" stroke="black" d="M210.11,-103.73C210.64,-95.43 211.2,-86.67 211.73,-78.28"/>
<polygon fill="black" stroke="black" points="215.23,-78.5 212.37,-68.3 208.24,-78.06 215.23,-78.5"/>
</g>
<!-- 7 -->
<g id="node8" class="node">
<title>7</title>
<polygon fill="#c09cf2" stroke="black" points="436,-68 309,-68 309,0 436,0 436,-68"/>
<text text-anchor="middle" x="372.5" y="-52.8" font-family="Times,serif" font-size="14.00">entropy = 0.918</text>
<text text-anchor="middle" x="372.5" y="-37.8" font-family="Times,serif" font-size="14.00">samples = 15</text>
<text text-anchor="middle" x="372.5" y="-22.8" font-family="Times,serif" font-size="14.00">value = [0, 5, 10]</text>
<text text-anchor="middle" x="372.5" y="-7.8" font-family="Times,serif" font-size="14.00">class = 2 - virginica</text>
</g>
<!-- 6&#45;&gt;7 -->
<g id="edge7" class="edge">
<title>6-&gt;7</title>
<path fill="none" stroke="black" d="M376.89,-103.73C376.36,-95.43 375.8,-86.67 375.27,-78.28"/>
<polygon fill="black" stroke="black" points="378.76,-78.06 374.63,-68.3 371.77,-78.5 378.76,-78.06"/>
</g>
<!-- 8 -->
<g id="node9" class="node">
<title>8</title>
<polygon fill="#8139e5" stroke="black" points="581,-68 454,-68 454,0 581,0 581,-68"/>
<text text-anchor="middle" x="517.5" y="-52.8" font-family="Times,serif" font-size="14.00">entropy = 0.0</text>
<text text-anchor="middle" x="517.5" y="-37.8" font-family="Times,serif" font-size="14.00">samples = 26</text>
<text text-anchor="middle" x="517.5" y="-22.8" font-family="Times,serif" font-size="14.00">value = [0, 0, 26]</text>
<text text-anchor="middle" x="517.5" y="-7.8" font-family="Times,serif" font-size="14.00">class = 2 - virginica</text>
</g>
<!-- 6&#45;&gt;8 -->
<g id="edge8" class="edge">
<title>6-&gt;8</title>
<path fill="none" stroke="black" d="M430.89,-103.73C442.84,-94.24 455.55,-84.16 467.45,-74.72"/>
<polygon fill="black" stroke="black" points="469.88,-77.26 475.53,-68.3 465.52,-71.77 469.88,-77.26"/>
</g>
</g>
</svg>