<svg height="433pt" viewBox="0.00 0.00 460.00 433.00" width="460pt" xmlns="http://www.w3.org/2000/svg" xmlns:xlink="http://www.w3.org/1999/xlink">
<g class="graph" id="graph0" transform="scale(1 1) rotate(0) translate(4 429)">
<title>Tree</title>
<polygon fill="#ffffff" points="-4,4 -4,-429 456,-429 456,4 -4,4" stroke="transparent"/>
<!-- 0 -->
<g class="node" id="node1">
<title>0</title>
<polygon fill="#fef8f4" points="279.5,-425 75.5,-425 75.5,-342 279.5,-342 279.5,-425" stroke="#000000"/>
<text fill="#000000" font-family="Times,serif" font-size="14.00" text-anchor="middle" x="177.5" y="-409.8">petal length (cm) &lt;= 2.45</text>
<text fill="#000000" font-family="Times,serif" font-size="14.00" text-anchor="middle" x="177.5" y="-394.8">entropy = 1.579</text>
<text fill="#000000" font-family="Times,serif" font-size="14.00" text-anchor="middle" x="177.5" y="-379.8">samples = 105</text>
<text fill="#000000" font-family="Times,serif" font-size="14.00" text-anchor="middle" x="177.5" y="-364.8">value = [39, 31, 35]</text>
<text fill="#000000" font-family="Times,serif" font-size="14.00" text-anchor="middle" x="177.5" y="-349.8">class = 0 - setosa</text>
</g>
<!-- 1 -->
<g class="node" id="node2">
<title>1</title>
<polygon fill="#e58139" points="154.5,-298.5 12.5,-298.5 12.5,-230.5 154.5,-230.5 154.5,-298.5" stroke="#000000"/>
<text fill="#000000" font-family="Times,serif" font-size="14.00" text-anchor="middle" x="83.5" y="-283.3">entropy = 0.0</text>
<text fill="#000000" font-family="Times,serif" font-size="14.00" text-anchor="middle" x="83.5" y="-268.3">samples = 39</text>
<text fill="#000000" font-family="Times,serif" font-size="14.00" text-anchor="middle" x="83.5" y="-253.3">value = [39, 0, 0]</text>
<text fill="#000000" font-family="Times,serif" font-size="14.00" text-anchor="middle" x="83.5" y="-238.3">class = 0 - setosa</text>
</g>
<!-- 0&#45;&gt;1 -->
<g class="edge" id="edge1">
<title>0-&gt;1</title>
<path d="M144.6234,-341.8796C135.6768,-330.5536 125.9776,-318.2748 116.9971,-306.9058" fill="none" stroke="#000000"/>
<polygon fill="#000000" points="119.551,-304.4926 110.6059,-298.8149 114.058,-308.8316 119.551,-304.4926" stroke="#000000"/>
<text fill="#000000" font-family="Times,serif" font-size="14.00" text-anchor="middle" x="107.6916" y="-319.9445">True</text>
</g>
<!-- 2 -->
<g class="node" id="node3">
<title>2</title>
<polygon fill="#f1e8fc" points="372,-306 173,-306 173,-223 372,-223 372,-306" stroke="#000000"/>
<text fill="#000000" font-family="Times,serif" font-size="14.00" text-anchor="middle" x="272.5" y="-290.8">petal width (cm) &lt;= 1.75</text>
<text fill="#000000" font-family="Times,serif" font-size="14.00" text-anchor="middle" x="272.5" y="-275.8">entropy = 0.997</text>
<text fill="#000000" font-family="Times,serif" font-size="14.00" text-anchor="middle" x="272.5" y="-260.8">samples = 66</text>
<text fill="#000000" font-family="Times,serif" font-size="14.00" text-anchor="middle" x="272.5" y="-245.8">value = [0, 31, 35]</text>
<text fill="#000000" font-family="Times,serif" font-size="14.00" text-anchor="middle" x="272.5" y="-230.8">class = 2 - virginica</text>
</g>
<!-- 0&#45;&gt;2 -->
<g class="edge" id="edge2">
<title>0-&gt;2</title>
<path d="M210.7264,-341.8796C217.8444,-332.9633 225.4339,-323.4565 232.7692,-314.268" fill="none" stroke="#000000"/>
<polygon fill="#000000" points="235.6281,-316.2968 239.1318,-306.2981 230.1575,-311.9295 235.6281,-316.2968" stroke="#000000"/>
<text fill="#000000" font-family="Times,serif" font-size="14.00" text-anchor="middle" x="241.9181" y="-327.4423">False</text>
</g>
<!-- 3 -->
<g class="node" id="node4">
<title>3</title>
<polygon fill="#53e891" points="275.5,-187 71.5,-187 71.5,-104 275.5,-104 275.5,-187" stroke="#000000"/>
<text fill="#000000" font-family="Times,serif" font-size="14.00" text-anchor="middle" x="173.5" y="-171.8">petal length (cm) &lt;= 4.95</text>
<text fill="#000000" font-family="Times,serif" font-size="14.00" text-anchor="middle" x="173.5" y="-156.8">entropy = 0.513</text>
<text fill="#000000" font-family="Times,serif" font-size="14.00" text-anchor="middle" x="173.5" y="-141.8">samples = 35</text>
<text fill="#000000" font-family="Times,serif" font-size="14.00" text-anchor="middle" x="173.5" y="-126.8">value = [0, 31, 4]</text>
<text fill="#000000" font-family="Times,serif" font-size="14.00" text-anchor="middle" x="173.5" y="-111.8">class = 1 - versicolor</text>
</g>
<!-- 2&#45;&gt;3 -->
<g class="edge" id="edge3">
<title>2-&gt;3</title>
<path d="M237.8746,-222.8796C230.382,-213.8733 222.3881,-204.2644 214.6721,-194.9897" fill="none" stroke="#000000"/>
<polygon fill="#000000" points="217.3593,-192.7472 208.2732,-187.2981 211.9781,-197.224 217.3593,-192.7472" stroke="#000000"/>
</g>
<!-- 6 -->
<g class="node" id="node7">
<title>6</title>
<polygon fill="#8139e5" points="452,-179.5 293,-179.5 293,-111.5 452,-111.5 452,-179.5" stroke="#000000"/>
<text fill="#000000" font-family="Times,serif" font-size="14.00" text-anchor="middle" x="372.5" y="-164.3">entropy = 0.0</text>
<text fill="#000000" font-family="Times,serif" font-size="14.00" text-anchor="middle" x="372.5" y="-149.3">samples = 31</text>
<text fill="#000000" font-family="Times,serif" font-size="14.00" text-anchor="middle" x="372.5" y="-134.3">value = [0, 0, 31]</text>
<text fill="#000000" font-family="Times,serif" font-size="14.00" text-anchor="middle" x="372.5" y="-119.3">class = 2 - virginica</text>
</g>
<!-- 2&#45;&gt;6 -->
<g class="edge" id="edge6">
<title>2-&gt;6</title>
<path d="M307.4751,-222.8796C317.0852,-211.4436 327.5115,-199.0363 337.1429,-187.575" fill="none" stroke="#000000"/>
<polygon fill="#000000" points="339.91,-189.7225 343.6639,-179.8149 334.5509,-185.219 339.91,-189.7225" stroke="#000000"/>
</g>
<!-- 4 -->
<g class="node" id="node5">
<title>4</title>
<polygon fill="#40e685" points="167,-68 0,-68 0,0 167,0 167,-68" stroke="#000000"/>
<text fill="#000000" font-family="Times,serif" font-size="14.00" text-anchor="middle" x="83.5" y="-52.8">entropy = 0.211</text>
<text fill="#000000" font-family="Times,serif" font-size="14.00" text-anchor="middle" x="83.5" y="-37.8">samples = 30</text>
<text fill="#000000" font-family="Times,serif" font-size="14.00" text-anchor="middle" x="83.5" y="-22.8">value = [0, 29, 1]</text>
<text fill="#000000" font-family="Times,serif" font-size="14.00" text-anchor="middle" x="83.5" y="-7.8">class = 1 - versicolor</text>
</g>
<!-- 3&#45;&gt;4 -->
<g class="edge" id="edge4">
<title>3-&gt;4</title>
<path d="M139.9873,-103.9815C132.643,-94.8828 124.8612,-85.242 117.4981,-76.1199" fill="none" stroke="#000000"/>
<polygon fill="#000000" points="120.1612,-73.8467 111.1568,-68.2637 114.7143,-78.2434 120.1612,-73.8467" stroke="#000000"/>
</g>
<!-- 5 -->
<g class="node" id="node6">
<title>5</title>
<polygon fill="#d5bdf6" points="344,-68 185,-68 185,0 344,0 344,-68" stroke="#000000"/>
<text fill="#000000" font-family="Times,serif" font-size="14.00" text-anchor="middle" x="264.5" y="-52.8">entropy = 0.971</text>
<text fill="#000000" font-family="Times,serif" font-size="14.00" text-anchor="middle" x="264.5" y="-37.8">samples = 5</text>
<text fill="#000000" font-family="Times,serif" font-size="14.00" text-anchor="middle" x="264.5" y="-22.8">value = [0, 2, 3]</text>
<text fill="#000000" font-family="Times,serif" font-size="14.00" text-anchor="middle" x="264.5" y="-7.8">class = 2 - virginica</text>
</g>
<!-- 3&#45;&gt;5 -->
<g class="edge" id="edge5">
<title>3-&gt;5</title>
<path d="M207.385,-103.9815C214.8109,-94.8828 222.6792,-85.242 230.1241,-76.1199" fill="none" stroke="#000000"/>
<polygon fill="#000000" points="232.9245,-78.224 236.5359,-68.2637 227.5014,-73.798 232.9245,-78.224" stroke="#000000"/>
</g>
</g>
</svg>