<svg height="314pt" viewBox="0.00 0.00 437.50 314.00" width="438pt" xmlns="http://www.w3.org/2000/svg" xmlns:xlink="http://www.w3.org/1999/xlink">
<g class="graph" id="graph0" transform="scale(1 1) rotate(0) translate(4 310)">
<title>Tree</title>
<polygon fill="#ffffff" points="-4,4 -4,-310 433.5,-310 433.5,4 -4,4" stroke="transparent"/>
<!-- 0 -->
<g class="node" id="node1">
<title>0</title>
<polygon fill="#fef8f4" points="267,-306 63,-306 63,-223 267,-223 267,-306" stroke="#000000"/>
<text fill="#000000" font-family="Times,serif" font-size="14.00" text-anchor="middle" x="165" y="-290.8">petal length (cm) &lt;= 2.45</text>
<text fill="#000000" font-family="Times,serif" font-size="14.00" text-anchor="middle" x="165" y="-275.8">entropy = 1.579</text>
<text fill="#000000" font-family="Times,serif" font-size="14.00" text-anchor="middle" x="165" y="-260.8">samples = 105</text>
<text fill="#000000" font-family="Times,serif" font-size="14.00" text-anchor="middle" x="165" y="-245.8">value = [39, 31, 35]</text>
<text fill="#000000" font-family="Times,serif" font-size="14.00" text-anchor="middle" x="165" y="-230.8">class = 0 - setosa</text>
</g>
<!-- 1 -->
<g class="node" id="node2">
<title>1</title>
<polygon fill="#e58139" points="142,-179.5 0,-179.5 0,-111.5 142,-111.5 142,-179.5" stroke="#000000"/>
<text fill="#000000" font-family="Times,serif" font-size="14.00" text-anchor="middle" x="71" y="-164.3">entropy = 0.0</text>
<text fill="#000000" font-family="Times,serif" font-size="14.00" text-anchor="middle" x="71" y="-149.3">samples = 39</text>
<text fill="#000000" font-family="Times,serif" font-size="14.00" text-anchor="middle" x="71" y="-134.3">value = [39, 0, 0]</text>
<text fill="#000000" font-family="Times,serif" font-size="14.00" text-anchor="middle" x="71" y="-119.3">class = 0 - setosa</text>
</g>
<!-- 0&#45;&gt;1 -->
<g class="edge" id="edge1">
<title>0-&gt;1</title>
<path d="M132.1234,-222.8796C123.1768,-211.5536 113.4776,-199.2748 104.4971,-187.9058" fill="none" stroke="#000000"/>
<polygon fill="#000000" points="107.051,-185.4926 98.1059,-179.8149 101.558,-189.8316 107.051,-185.4926" stroke="#000000"/>
<text fill="#000000" font-family="Times,serif" font-size="14.00" text-anchor="middle" x="95.1916" y="-200.9445">True</text>
</g>
<!-- 2 -->
<g class="node" id="node3">
<title>2</title>
<polygon fill="#f1e8fc" points="359.5,-187 160.5,-187 160.5,-104 359.5,-104 359.5,-187" stroke="#000000"/>
<text fill="#000000" font-family="Times,serif" font-size="14.00" text-anchor="middle" x="260" y="-171.8">petal width (cm) &lt;= 1.75</text>
<text fill="#000000" font-family="Times,serif" font-size="14.00" text-anchor="middle" x="260" y="-156.8">entropy = 0.997</text>
<text fill="#000000" font-family="Times,serif" font-size="14.00" text-anchor="middle" x="260" y="-141.8">samples = 66</text>
<text fill="#000000" font-family="Times,serif" font-size="14.00" text-anchor="middle" x="260" y="-126.8">value = [0, 31, 35]</text>
<text fill="#000000" font-family="Times,serif" font-size="14.00" text-anchor="middle" x="260" y="-111.8">class = 2 - virginica</text>
</g>
<!-- 0&#45;&gt;2 -->
<g class="edge" id="edge2">
<title>0-&gt;2</title>
<path d="M198.2264,-222.8796C205.3444,-213.9633 212.9339,-204.4565 220.2692,-195.268" fill="none" stroke="#000000"/>
<polygon fill="#000000" points="223.1281,-197.2968 226.6318,-187.2981 217.6575,-192.9295 223.1281,-197.2968" stroke="#000000"/>
<text fill="#000000" font-family="Times,serif" font-size="14.00" text-anchor="middle" x="229.4181" y="-208.4423">False</text>
</g>
<!-- 3 -->
<g class="node" id="node4">
<title>3</title>
<polygon fill="#53e891" points="252.5,-68 85.5,-68 85.5,0 252.5,0 252.5,-68" stroke="#000000"/>
<text fill="#000000" font-family="Times,serif" font-size="14.00" text-anchor="middle" x="169" y="-52.8">entropy = 0.513</text>
<text fill="#000000" font-family="Times,serif" font-size="14.00" text-anchor="middle" x="169" y="-37.8">samples = 35</text>
<text fill="#000000" font-family="Times,serif" font-size="14.00" text-anchor="middle" x="169" y="-22.8">value = [0, 31, 4]</text>
<text fill="#000000" font-family="Times,serif" font-size="14.00" text-anchor="middle" x="169" y="-7.8">class = 1 - versicolor</text>
</g>
<!-- 2&#45;&gt;3 -->
<g class="edge" id="edge3">
<title>2-&gt;3</title>
<path d="M226.115,-103.9815C218.6891,-94.8828 210.8208,-85.242 203.3759,-76.1199" fill="none" stroke="#000000"/>
<polygon fill="#000000" points="205.9986,-73.798 196.9641,-68.2637 200.5755,-78.224 205.9986,-73.798" stroke="#000000"/>
</g>
<!-- 4 -->
<g class="node" id="node5">
<title>4</title>
<polygon fill="#8139e5" points="429.5,-68 270.5,-68 270.5,0 429.5,0 429.5,-68" stroke="#000000"/>
<text fill="#000000" font-family="Times,serif" font-size="14.00" text-anchor="middle" x="350" y="-52.8">entropy = 0.0</text>
<text fill="#000000" font-family="Times,serif" font-size="14.00" text-anchor="middle" x="350" y="-37.8">samples = 31</text>
<text fill="#000000" font-family="Times,serif" font-size="14.00" text-anchor="middle" x="350" y="-22.8">value = [0, 0, 31]</text>
<text fill="#000000" font-family="Times,serif" font-size="14.00" text-anchor="middle" x="350" y="-7.8">class = 2 - virginica</text>
</g>
<!-- 2&#45;&gt;4 -->
<g class="edge" id="edge4">
<title>2-&gt;4</title>
<path d="M293.5127,-103.9815C300.857,-94.8828 308.6388,-85.242 316.0019,-76.1199" fill="none" stroke="#000000"/>
<polygon fill="#000000" points="318.7857,-78.2434 322.3432,-68.2637 313.3388,-73.8467 318.7857,-78.2434" stroke="#000000"/>
</g>
</g>
</svg>