<svg height="186pt" viewBox="0.00 0.00 264.41 186.00" width="264pt" xmlns="http://www.w3.org/2000/svg" xmlns:xlink="http://www.w3.org/1999/xlink">
<g class="graph" id="graph0" transform="scale(1 1) rotate(0) translate(4 182)">
<title>Tree</title>
<polygon fill="white" points="-4,4 -4,-182 260.41,-182 260.41,4 -4,4" stroke="transparent"/>
<!-- 0 -->
<g class="node" id="node1">
<title>0</title>
<polygon fill="#fef8f4" points="203.69,-178 44.85,-178 44.85,-100 203.69,-100 203.69,-178" stroke="black"/>
<text font-family="Times,serif" font-size="14.00" text-anchor="middle" x="124.27" y="-162.8">petal length (cm) &lt;= 2.45</text>
<text font-family="Times,serif" font-size="14.00" text-anchor="middle" x="124.27" y="-148.8">entropy = 1.579</text>
<text font-family="Times,serif" font-size="14.00" text-anchor="middle" x="124.27" y="-134.8">samples = 105</text>
<text font-family="Times,serif" font-size="14.00" text-anchor="middle" x="124.27" y="-120.8">value = [39, 31, 35]</text>
<text font-family="Times,serif" font-size="14.00" text-anchor="middle" x="124.27" y="-106.8">class = 0 - setosa</text>
</g>
<!-- 1 -->
<g class="node" id="node2">
<title>1</title>
<polygon fill="#e58139" points="112.31,-64 0.23,-64 0.23,0 112.31,0 112.31,-64" stroke="black"/>
<text font-family="Times,serif" font-size="14.00" text-anchor="middle" x="56.27" y="-48.8">entropy = 0.0</text>
<text font-family="Times,serif" font-size="14.00" text-anchor="middle" x="56.27" y="-34.8">samples = 39</text>
<text font-family="Times,serif" font-size="14.00" text-anchor="middle" x="56.27" y="-20.8">value = [39, 0, 0]</text>
<text font-family="Times,serif" font-size="14.00" text-anchor="middle" x="56.27" y="-6.8">class = 0 - setosa</text>
</g>
<!-- 0&#45;&gt;1 -->
<g class="edge" id="edge1">
<title>0-&gt;1</title>
<path d="M99.53,-99.8C93.83,-91 87.76,-81.63 82.02,-72.76" fill="none" stroke="black"/>
<polygon fill="black" points="84.79,-70.61 76.42,-64.12 78.92,-74.41 84.79,-70.61" stroke="black"/>
<text font-family="Times,serif" font-size="14.00" text-anchor="middle" x="71.19" y="-84.36">True</text>
</g>
<!-- 2 -->
<g class="node" id="node3">
<title>2</title>
<polygon fill="#f1e8fc" points="256.55,-64 129.98,-64 129.98,0 256.55,0 256.55,-64" stroke="black"/>
<text font-family="Times,serif" font-size="14.00" text-anchor="middle" x="193.27" y="-48.8">entropy = 0.997</text>
<text font-family="Times,serif" font-size="14.00" text-anchor="middle" x="193.27" y="-34.8">samples = 66</text>
<text font-family="Times,serif" font-size="14.00" text-anchor="middle" x="193.27" y="-20.8">value = [0, 31, 35]</text>
<text font-family="Times,serif" font-size="14.00" text-anchor="middle" x="193.27" y="-6.8">class = 2 - virginica</text>
</g>
<!-- 0&#45;&gt;2 -->
<g class="edge" id="edge2">
<title>0-&gt;2</title>
<path d="M149.37,-99.8C155.21,-90.91 161.44,-81.43 167.32,-72.49" fill="none" stroke="black"/>
<polygon fill="black" points="170.25,-74.4 172.82,-64.12 164.4,-70.55 170.25,-74.4" stroke="black"/>
<text font-family="Times,serif" font-size="14.00" text-anchor="middle" x="177.89" y="-84.4">False</text>
</g>
</g>
</svg>